<svg width="39" height="38" viewBox="0 0 39 38" fill="none" xmlns="http://www.w3.org/2000/svg">
<path d="M19.0013 9.25728C24.3941 9.25728 28.744 13.6072 28.744 19C28.744 24.3928 24.3941 28.7427 19.0013 28.7427C13.6085 28.7427 9.25857 24.3928 9.25857 19C9.25857 13.6072 13.6085 9.25728 19.0013 9.25728ZM19.0013 25.334C22.4863 25.334 25.3353 22.4935 25.3353 19C25.3353 15.5065 22.4948 12.666 19.0013 12.666C15.5078 12.666 12.6672 15.5065 12.6672 19C12.6672 22.4935 15.5163 25.334 19.0013 25.334ZM6.58759 8.85875C6.58759 10.1222 7.6051 11.1312 8.86004 11.1312C10.1235 11.1312 11.1325 10.1137 11.1325 8.85875C11.1325 7.60382 10.115 6.5863 8.86004 6.5863C7.6051 6.5863 6.58759 7.60382 6.58759 8.85875ZM0.134838 11.1651C0.278984 8.12105 0.974289 5.42463 3.20435 3.20306C5.42592 0.981479 8.12234 0.286177 11.1664 0.133549C14.3038 -0.0445163 23.7073 -0.0445163 26.8446 0.133549C29.8802 0.277697 32.5767 0.973 34.8067 3.19458C37.0368 5.41616 37.7236 8.11257 37.8762 11.1566C38.0543 14.294 38.0543 23.6975 37.8762 26.8349C37.7321 29.8789 37.0368 32.5754 34.8067 34.7969C32.5767 37.0185 29.8887 37.7138 26.8446 37.8665C23.7073 38.0445 14.3038 38.0445 11.1664 37.8665C8.12234 37.7223 5.42592 37.027 3.20435 34.7969C0.982769 32.5754 0.287464 29.8789 0.134838 26.8349C-0.0432281 23.6975 -0.0432281 14.3025 0.134838 11.1651ZM4.18795 30.2012C4.84933 31.8631 6.1297 33.1435 7.80013 33.8133C10.3015 34.8054 16.237 34.5765 19.0013 34.5765C21.7655 34.5765 27.7095 34.7969 30.2024 33.8133C31.8644 33.152 33.1448 31.8716 33.8146 30.2012C34.8067 27.6998 34.5778 21.7643 34.5778 19C34.5778 16.2357 34.7982 10.2918 33.8146 7.79884C33.1532 6.1369 31.8729 4.85652 30.2024 4.18666C27.7011 3.19458 21.7655 3.42352 19.0013 3.42352C16.237 3.42352 10.293 3.20306 7.80013 4.18666C6.13818 4.84804 4.85781 6.12842 4.18795 7.79884C3.19587 10.3002 3.42481 16.2357 3.42481 19C3.42481 21.7643 3.19587 27.7082 4.18795 30.2012Z" fill="black"/>
</svg>
