<svg xmlns="http://www.w3.org/2000/svg" viewBox="0 0 216.58 253.24"><defs><style>.cls-1{fill:#010101;}.cls-2{fill:#fff;}</style></defs><g id="Capa_2" data-name="Capa 2"><g id="Capa_1-2" data-name="Capa 1"><path class="cls-1" d="M108.06,0c58.28,0,108.52,46.22,108.52,127.12,0,79.88-50.24,126.12-108.52,126.12C50.25,253.24,0,207,0,127.12,0,46.19,50.25,0,108.06,0"/><path class="cls-2" d="M30.28,175.12a58.2,58.2,0,0,0,43.47,19.94c22.4,0,36.75-12.1,36.75-29.57,0-18.38-12.11-24.44-26.68-30.93l-22.4-10.08c-12.77-5.61-29.81-14.79-29.81-36.74,0-21.28,18.37-36.3,42.8-36.3a56.21,56.21,0,0,1,41.24,17.7l-6.06,7A46.8,46.8,0,0,0,74.4,60.86c-19.48,0-32.49,10.31-32.49,26.44,0,17,14.79,23.52,25.55,28.45l22.4,9.86c16.36,7.38,30.92,16.58,30.92,39.2s-18.6,39.65-47.27,39.65a65.07,65.07,0,0,1-49.75-22.17l6.52-7.17Z"/><path class="cls-2" d="M138.63,102.18,96,101.73V94.11l42.88-.45,1.34-31.13h8.51V93.66h31.15v8.52H148.71V172.3c0,13.69,3.37,22.87,18.16,22.87,4,0,9.62-1.58,13.44-3.36l2.68,8.06c-6.26,2.24-13,4-17.46,4-20.85,0-26.9-13.23-26.9-32.5V102.18Z"/></g></g></svg>