<?xml version="1.0" standalone="no"?>
<!DOCTYPE svg PUBLIC "-//W3C//DTD SVG 20010904//EN"
 "http://www.w3.org/TR/2001/REC-SVG-20010904/DTD/svg10.dtd">
<svg version="1.0" xmlns="http://www.w3.org/2000/svg"
 width="1012.000000pt" height="1012.000000pt" viewBox="0 0 1012.000000 1012.000000"
 preserveAspectRatio="xMidYMid meet">
<metadata>
Created by potrace 1.14, written by Peter Selinger 2001-2017
</metadata>
<g transform="translate(0.000000,1012.000000) scale(0.100000,-0.100000)"
fill="#000000" stroke="none">
<path d="M4755 10110 c-33 -3 -77 -6 -98 -6 -20 1 -37 -2 -37 -6 0 -3 -7 -5
-16 -4 -9 1 -41 -1 -72 -6 -32 -4 -73 -10 -92 -12 -52 -8 -110 -17 -134 -22
-34 -8 -58 -12 -101 -19 -22 -3 -65 -13 -95 -21 -30 -9 -64 -17 -75 -19 -46
-9 -73 -16 -138 -36 -37 -11 -75 -22 -85 -24 -9 -2 -17 -4 -17 -4 0 -2 -140
-51 -159 -56 -10 -2 -23 -9 -30 -14 -6 -5 -14 -10 -18 -10 -43 -7 -68 -15 -68
-24 0 -6 -3 -8 -6 -5 -8 9 -125 -43 -314 -136 -127 -64 -171 -87 -180 -96 -3
-3 -18 -12 -35 -20 -16 -8 -34 -18 -40 -23 -34 -26 -85 -55 -85 -49 0 4 -4 3
-8 -3 -4 -5 -52 -40 -107 -77 -113 -76 -297 -217 -362 -278 -24 -22 -46 -40
-49 -40 -7 0 -328 -323 -364 -365 -84 -100 -162 -198 -201 -250 -24 -33 -46
-62 -49 -65 -11 -10 -140 -199 -140 -205 0 -6 -41 -67 -51 -75 -4 -3 -9 -15
-13 -27 -4 -13 -11 -23 -16 -23 -4 0 -10 -8 -13 -17 -3 -10 -22 -45 -41 -78
-66 -112 -193 -369 -256 -520 -34 -82 -68 -163 -75 -180 -13 -31 -116 -332
-120 -350 -1 -5 -7 -30 -14 -55 -7 -25 -15 -52 -17 -60 -16 -59 -43 -155 -44
-155 -1 0 -3 -11 -5 -25 -3 -14 -11 -52 -19 -85 -8 -33 -12 -63 -10 -67 3 -5
1 -8 -3 -8 -5 0 -9 -8 -10 -17 -1 -10 -4 -31 -8 -48 -12 -61 -14 -71 -19 -95
-2 -14 -9 -52 -15 -85 -15 -82 -23 -135 -26 -165 -2 -14 -4 -25 -5 -25 -1 0
-3 -13 -4 -30 -2 -16 -6 -51 -9 -77 -18 -125 -24 -181 -31 -283 -2 -27 -7
-106 -12 -175 -11 -155 -11 -731 0 -900 4 -69 8 -137 9 -152 0 -16 3 -28 6
-28 3 0 6 -17 5 -38 -1 -33 7 -108 31 -292 9 -72 44 -279 60 -355 8 -38 17
-84 20 -101 3 -17 23 -100 45 -185 22 -85 42 -161 44 -169 2 -8 10 -35 17 -60
7 -25 13 -47 14 -50 2 -14 77 -238 85 -255 5 -11 33 -83 63 -160 121 -309 261
-579 461 -885 27 -41 53 -76 58 -78 4 -2 8 -8 8 -13 0 -9 144 -205 160 -219 3
-3 21 -25 40 -50 19 -25 44 -55 55 -66 11 -12 47 -52 80 -88 109 -122 298
-305 405 -392 41 -34 54 -44 76 -63 9 -8 37 -30 63 -49 25 -19 48 -39 49 -44
2 -4 9 -8 16 -8 7 0 21 -9 33 -19 27 -26 286 -195 304 -199 7 -2 16 -7 19 -11
3 -5 30 -22 61 -38 31 -17 67 -37 80 -46 12 -9 26 -14 31 -11 4 3 8 0 8 -7 0
-7 3 -9 7 -6 3 4 13 1 22 -7 16 -14 303 -146 318 -146 4 0 19 -6 33 -13 15 -8
71 -29 125 -47 55 -18 109 -37 120 -42 27 -12 222 -66 300 -83 11 -3 31 -7 45
-11 118 -28 296 -59 405 -70 28 -3 61 -7 75 -10 174 -30 781 -24 1000 11 19 3
55 8 80 11 25 3 56 7 70 10 14 3 48 9 75 14 100 19 110 21 124 26 8 2 30 7 50
10 20 3 47 9 61 14 14 4 39 11 55 15 105 21 421 127 540 180 162 73 187 83
196 81 4 0 15 6 25 15 11 9 35 22 54 29 19 7 42 19 50 25 8 7 35 23 60 35 38
19 156 88 255 150 56 34 170 115 173 122 2 5 8 8 13 8 5 0 17 6 26 14 10 8 56
45 103 82 47 37 92 74 100 81 8 7 35 30 60 50 25 20 124 117 220 215 194 197
230 235 230 246 0 4 8 15 18 23 22 20 39 42 116 143 33 45 63 83 66 86 3 3 10
13 15 22 6 9 38 57 73 107 34 50 62 95 62 101 0 5 5 10 10 10 6 0 10 5 10 11
0 6 14 30 30 54 17 24 30 47 30 50 0 4 8 19 19 33 10 15 37 63 60 106 23 44
46 84 50 90 5 6 12 23 16 39 4 15 11 27 15 27 5 0 11 14 15 30 4 17 11 30 16
30 5 0 9 4 9 10 0 8 50 125 106 247 8 17 14 34 14 38 0 4 7 21 14 38 19 41 88
232 116 322 12 39 25 77 28 85 3 8 6 20 7 26 2 7 15 52 29 102 14 50 27 99 29
109 1 10 6 24 10 31 5 6 6 12 3 12 -2 0 2 24 10 53 18 65 21 75 29 123 8 46
13 69 15 69 1 0 3 9 4 20 2 11 8 47 14 80 20 105 22 119 27 153 3 17 8 49 11
70 3 20 7 52 10 70 2 17 6 49 9 70 10 71 16 127 20 182 2 30 4 55 5 55 1 0 3
18 5 40 1 22 6 96 11 165 11 160 11 740 0 890 -4 63 -9 139 -9 167 -1 29 -4
53 -7 53 -3 0 -5 12 -6 28 -2 52 -18 205 -28 269 -4 21 -8 52 -11 68 -6 45
-15 103 -27 170 -16 93 -18 107 -29 155 -6 25 -12 56 -14 70 -3 14 -7 35 -10
48 -3 12 -7 30 -9 41 -2 10 -9 35 -14 55 -6 20 -8 36 -5 36 3 0 0 7 -7 15 -7
8 -10 15 -7 15 7 0 -77 301 -113 400 -5 14 -23 66 -40 115 -17 50 -38 104 -46
122 -8 17 -14 34 -14 37 0 44 -325 703 -352 714 -4 2 -8 8 -8 14 0 13 -190
302 -202 306 -4 2 -8 8 -8 13 0 5 -6 17 -14 26 -8 10 -54 68 -102 128 -48 61
-91 112 -95 113 -5 2 -9 7 -9 11 0 38 -513 531 -609 585 -9 5 -23 18 -32 28
-9 10 -21 18 -27 18 -6 0 -12 4 -14 8 -2 7 -207 148 -273 189 -193 118 -398
222 -620 313 -11 5 -41 18 -67 29 -27 11 -48 17 -48 14 0 -3 -7 0 -15 7 -8 7
-15 9 -15 5 0 -4 -6 -3 -12 3 -7 5 -60 24 -118 41 -58 18 -116 36 -130 40 -14
5 -43 13 -65 19 -22 6 -58 15 -80 21 -47 12 -163 37 -215 47 -14 2 -41 7 -60
10 -90 16 -139 24 -200 30 -30 3 -68 7 -85 10 -16 2 -52 6 -80 9 -77 8 -602
12 -670 5z"/>
</g>
</svg>
