<svg xmlns="http://www.w3.org/2000/svg" width="541" height="295" fill="none" viewBox="0 0 541 295"><path fill="#fff" stroke="#fff" stroke-width="14" d="m502.189 12.252-.009.008-.008.008L269.992 244.4 37.831 12.269l-.009-.009-.008-.008c-7.008-6.959-18.393-7.024-25.458-.067a17.85 17.85 0 0 0-.073 25.425l244.969 244.939.023.023.023.023c7.062 6.932 18.45 6.904 25.472-.085l.005-.005.006-.006L527.719 37.61l.013-.013a17.853 17.853 0 0 0 3.864-19.61 17.855 17.855 0 0 0-3.944-5.797c-7.065-6.962-18.454-6.898-25.463.062Z"/></svg>