<svg xmlns="http://www.w3.org/2000/svg" width="39" height="38" fill="none" viewBox="0 0 39 38"><path fill="#000" d="M19.001 9.257A9.727 9.727 0 0 1 28.744 19a9.727 9.727 0 0 1-9.743 9.743A9.727 9.727 0 0 1 9.26 19 9.727 9.727 0 0 1 19 9.257Zm0 16.077c3.485 0 6.334-2.84 6.334-6.334a6.34 6.34 0 0 0-6.334-6.334A6.34 6.34 0 0 0 12.667 19c0 3.494 2.85 6.334 6.334 6.334ZM6.588 8.859A2.267 2.267 0 0 0 8.86 11.13a2.273 2.273 0 1 0-2.272-2.27ZM.135 11.165c.144-3.044.84-5.74 3.07-7.962C5.424.981 8.121.286 11.165.133c3.138-.178 12.541-.178 15.679 0 3.035.145 5.732.84 7.962 3.062 2.23 2.221 2.917 4.918 3.07 7.962.177 3.137.177 12.54 0 15.678-.145 3.044-.84 5.74-3.07 7.962-2.23 2.222-4.918 2.917-7.962 3.07-3.138.178-12.541.178-15.679 0-3.044-.145-5.74-.84-7.962-3.07C.983 32.575.287 29.879.134 26.835c-.177-3.137-.177-12.533 0-15.67Zm4.053 19.036A6.412 6.412 0 0 0 7.8 33.813c2.502.992 8.437.764 11.201.764 2.764 0 8.708.22 11.201-.764a6.412 6.412 0 0 0 3.613-3.612c.992-2.501.763-8.437.763-11.201 0-2.764.22-8.708-.763-11.201a6.413 6.413 0 0 0-3.613-3.612c-2.5-.992-8.437-.763-11.2-.763-2.765 0-8.709-.22-11.202.763a6.413 6.413 0 0 0-3.612 3.612C3.196 10.3 3.425 16.236 3.425 19c0 2.764-.23 8.708.763 11.201Z"/></svg>