<svg xmlns="http://www.w3.org/2000/svg" xml:space="preserve" x="0px" y="0px" style="enable-background:new 0 0 582.58 170.18" viewBox="0 0 582.58 170.18"><path d="M10.34 138.14c10.76 12.09 26.2 19.94 43.47 19.94 22.4 0 36.75-12.1 36.75-29.57 0-18.38-12.11-24.44-26.68-30.93L41.48 87.5c-12.77-5.61-29.81-14.79-29.81-36.74 0-21.28 18.37-36.3 42.8-36.3 17.94 0 32.27 8.06 41.24 17.7l-6.06 6.96c-8.52-9.2-20.39-15.24-35.19-15.24-19.48 0-32.49 10.31-32.49 26.44 0 17.03 14.79 23.52 25.55 28.45l22.4 9.86c16.36 7.38 30.92 16.58 30.92 39.2 0 22.63-18.6 39.65-47.27 39.65-21.51 0-38.1-9.17-49.75-22.17l6.52-7.17zm122.12-72.37h-16.82v-7.62l17.05-.9 1.34-31.13h8.51v31.13h31.15v8.52h-31.15v70.12c0 13.69 3.37 22.87 18.16 22.87 4.03 0 9.62-1.58 13.44-3.36l2.68 8.06c-6.26 2.24-12.99 4.04-17.46 4.04-20.85 0-26.9-13.23-26.9-32.5V65.77zm65.22-8.52h9.86v67.66c0 22.87 7.4 33.61 24.64 33.61 12.79 0 21.97-6.72 34.74-21.95V57.25h9.86V164.8h-8.51l-.89-17.92h-.69c-10.54 12.32-21.5 20.61-36.52 20.61-22.19 0-32.49-13.43-32.49-41.22V57.25zm159.1-2.69c12.99 0 21.72 4.93 32.49 13.23l-.44-19.72V3.7h9.84v161.11h-8.52l-.88-13.89h-.68c-8.74 8.74-20.61 16.57-34.94 16.57-27.13 0-44.6-19.94-44.6-56.24 0-34.72 22.17-56.69 47.73-56.69m-1.79 104.19c11.87 0 22.41-6.27 33.84-17.7V77.19C377.4 67.11 367.98 63.3 357.45 63.3c-21.52 0-37.87 20.83-37.87 47.95.01 28.46 12.56 47.5 35.41 47.5m81.12-136.23c0-5.62 4.03-8.96 8.96-8.96 4.94 0 8.97 3.34 8.97 8.96 0 5.15-4.03 8.74-8.97 8.74s-8.96-3.59-8.96-8.74m3.81 34.74h9.86V164.8h-9.86V57.26zm90.53-2.7c25.99 0 48.39 20.61 48.39 56.69 0 35.62-22.4 56.24-48.39 56.24-25.78 0-48.19-20.62-48.19-56.24 0-36.09 22.41-56.69 48.19-56.69" style="fill:#000"/></svg>