<svg xmlns="http://www.w3.org/2000/svg" width="38" height="38" fill="none" viewBox="0 0 38 38"><path fill="#000" d="M32.309 5.522A18.689 18.689 0 0 0 18.992 0C8.608 0 .162 8.448.162 18.83c0 3.317.864 6.557 2.51 9.416L0 38l9.983-2.621a18.772 18.772 0 0 0 9 2.29h.008C29.365 37.67 38 29.221 38 18.84c0-5.03-2.138-9.755-5.691-13.317ZM18.992 34.497c-2.817 0-5.573-.755-7.974-2.18l-.568-.34-5.92 1.553 1.577-5.776-.373-.594a15.6 15.6 0 0 1-2.392-8.33c0-8.626 7.023-15.65 15.658-15.65a15.51 15.51 0 0 1 11.06 4.59c2.953 2.96 4.768 6.887 4.76 11.069 0 8.635-7.202 15.658-15.829 15.658Zm8.583-11.722c-.466-.238-2.782-1.375-3.214-1.527-.433-.161-.747-.238-1.06.237-.314.475-1.213 1.527-1.493 1.85-.272.313-.552.356-1.018.118-2.765-1.383-4.58-2.468-6.404-5.598-.484-.831.483-.772 1.382-2.57.153-.314.077-.585-.042-.823-.119-.237-1.06-2.553-1.45-3.495-.382-.916-.772-.788-1.06-.805-.272-.017-.586-.017-.9-.017-.314 0-.823.118-1.255.585-.433.475-1.646 1.611-1.646 3.927s1.688 4.555 1.917 4.869c.238.314 3.317 5.064 8.041 7.108 2.986 1.29 4.156 1.4 5.65 1.179.907-.136 2.782-1.137 3.172-2.24.39-1.102.39-2.044.271-2.239-.11-.212-.424-.33-.89-.56Z"/></svg>